<svg xmlns="http://www.w3.org/2000/svg" xmlns:xlink="http://www.w3.org/1999/xlink" width="1000" zoomAndPan="magnify" viewBox="0 0 750 299.999988" height="400" preserveAspectRatio="xMidYMid meet" version="1.0"><defs><g/><clipPath id="adb8719aa7"><path d="M 63 42.914062 L 129.980469 42.914062 L 129.980469 177.726562 L 63 177.726562 Z M 63 42.914062 " clip-rule="nonzero"/></clipPath><clipPath id="221e4f7eec"><path d="M 81.53125 42.914062 C 54.773438 42.914062 33.082031 64.605469 33.082031 91.363281 L 33.082031 129.28125 C 33.082031 156.039062 54.773438 177.730469 81.53125 177.730469 C 108.289062 177.730469 129.980469 156.039062 129.980469 129.28125 L 129.980469 91.363281 C 129.980469 64.605469 108.289062 42.914062 81.53125 42.914062 Z M 81.53125 42.914062 " clip-rule="nonzero"/></clipPath><clipPath id="529521e198"><path d="M 47 86 L 123 86 L 123 204 L 47 204 Z M 47 86 " clip-rule="nonzero"/></clipPath><clipPath id="35ca9809c5"><path d="M 52.484375 66.480469 L 147.945312 161.941406 L 79 230.882812 L -16.457031 135.421875 Z M 52.484375 66.480469 " clip-rule="nonzero"/></clipPath><clipPath id="393a3d62ee"><path d="M 18.226562 100.738281 C -0.695312 119.660156 -0.695312 150.335938 18.226562 169.253906 L 45.039062 196.066406 C 63.957031 214.988281 94.632812 214.988281 113.554688 196.066406 C 132.476562 177.144531 132.476562 146.46875 113.554688 127.550781 L 86.742188 100.738281 C 67.824219 81.816406 37.148438 81.816406 18.226562 100.738281 Z M 18.226562 100.738281 " clip-rule="nonzero"/></clipPath><clipPath id="52d57d8871"><path d="M 52.484375 66.480469 L 147.945312 161.941406 L 79.53125 230.351562 L -15.925781 134.894531 Z M 52.484375 66.480469 " clip-rule="nonzero"/></clipPath><clipPath id="087da0c2cb"><path d="M 147.8125 161.808594 L 52.351562 66.347656 L -16.058594 134.761719 L 79.398438 230.21875 Z M 147.8125 161.808594 " clip-rule="nonzero"/></clipPath><clipPath id="7acbe27222"><path d="M 64 80 L 181 80 L 181 156 L 64 156 Z M 64 80 " clip-rule="nonzero"/></clipPath><clipPath id="d99ca65111"><path d="M 200.816406 85.132812 L 105.359375 180.59375 L 36.414062 111.648438 L 131.875 16.191406 Z M 200.816406 85.132812 " clip-rule="nonzero"/></clipPath><clipPath id="fddbd7fc25"><path d="M 166.558594 50.875 C 147.636719 31.953125 116.960938 31.953125 98.042969 50.875 L 71.230469 77.6875 C 52.3125 96.605469 52.3125 127.28125 71.230469 146.203125 C 90.152344 165.121094 120.828125 165.121094 139.746094 146.203125 L 166.558594 119.390625 C 185.480469 100.472656 185.480469 69.796875 166.558594 50.875 Z M 166.558594 50.875 " clip-rule="nonzero"/></clipPath><clipPath id="dc86a8b6c8"><path d="M 200.816406 85.132812 L 105.359375 180.59375 L 36.945312 112.179688 L 132.40625 16.71875 Z M 200.816406 85.132812 " clip-rule="nonzero"/></clipPath><clipPath id="85873b9755"><path d="M 105.492188 180.460938 L 200.949219 85 L 132.535156 16.589844 L 37.078125 112.046875 Z M 105.492188 180.460938 " clip-rule="nonzero"/></clipPath><clipPath id="a6202ac144"><path d="M 14.128906 136.621094 L 148.941406 136.621094 L 148.941406 203 L 14.128906 203 Z M 14.128906 136.621094 " clip-rule="nonzero"/></clipPath><clipPath id="e34843098f"><path d="M 14.128906 185.070312 C 14.128906 211.828125 35.820312 233.519531 62.574219 233.519531 L 100.492188 233.519531 C 127.25 233.519531 148.941406 211.828125 148.941406 185.070312 C 148.941406 158.3125 127.25 136.621094 100.492188 136.621094 L 62.574219 136.621094 C 35.820312 136.621094 14.128906 158.3125 14.128906 185.070312 Z M 14.128906 185.070312 " clip-rule="nonzero"/></clipPath><clipPath id="397dc66a17"><path d="M 103.925781 122.265625 L 171 122.265625 L 171 257.078125 L 103.925781 257.078125 Z M 103.925781 122.265625 " clip-rule="nonzero"/></clipPath><clipPath id="4c79cd243f"><path d="M 152.375 257.078125 C 179.132812 257.078125 200.824219 235.386719 200.824219 208.628906 L 200.824219 170.710938 C 200.824219 143.957031 179.132812 122.265625 152.375 122.265625 C 125.617188 122.265625 103.925781 143.957031 103.925781 170.710938 L 103.925781 208.628906 C 103.925781 235.386719 125.617188 257.078125 152.375 257.078125 Z M 152.375 257.078125 " clip-rule="nonzero"/></clipPath><clipPath id="80b9a5d7ec"><path d="M 111 96 L 187 96 L 187 214 L 111 214 Z M 111 96 " clip-rule="nonzero"/></clipPath><clipPath id="5109fd2c70"><path d="M 181.417969 233.511719 L 85.960938 138.054688 L 154.902344 69.109375 L 250.363281 164.570312 Z M 181.417969 233.511719 " clip-rule="nonzero"/></clipPath><clipPath id="138c6c359c"><path d="M 215.679688 199.253906 C 234.597656 180.335938 234.597656 149.660156 215.679688 130.738281 L 188.867188 103.925781 C 169.945312 85.007812 139.269531 85.007812 120.351562 103.925781 C 101.429688 122.847656 101.429688 153.523438 120.351562 172.445312 L 147.160156 199.253906 C 166.082031 218.175781 196.757812 218.175781 215.679688 199.253906 Z M 215.679688 199.253906 " clip-rule="nonzero"/></clipPath><clipPath id="52f7a6e7b5"><path d="M 181.417969 233.511719 L 85.960938 138.054688 L 154.375 69.640625 L 249.832031 165.101562 Z M 181.417969 233.511719 " clip-rule="nonzero"/></clipPath><clipPath id="03b4796216"><path d="M 86.09375 138.1875 L 181.550781 233.644531 L 249.964844 165.234375 L 154.503906 69.773438 Z M 86.09375 138.1875 " clip-rule="nonzero"/></clipPath><clipPath id="c78f9e3306"><path d="M 53 144 L 170 144 L 170 220 L 53 220 Z M 53 144 " clip-rule="nonzero"/></clipPath><clipPath id="b780105ebf"><path d="M 33.085938 214.859375 L 128.546875 119.402344 L 197.488281 188.34375 L 102.03125 283.804688 Z M 33.085938 214.859375 " clip-rule="nonzero"/></clipPath><clipPath id="2ea04084dc"><path d="M 67.347656 249.117188 C 86.265625 268.039062 116.941406 268.039062 135.863281 249.117188 L 162.675781 222.308594 C 181.59375 203.386719 181.59375 172.710938 162.675781 153.789062 C 143.753906 134.871094 113.078125 134.871094 94.15625 153.789062 L 67.347656 180.601562 C 48.425781 199.523438 48.425781 230.199219 67.347656 249.117188 Z M 67.347656 249.117188 " clip-rule="nonzero"/></clipPath><clipPath id="dc93c4d010"><path d="M 33.085938 214.859375 L 128.546875 119.402344 L 196.960938 187.8125 L 101.5 283.273438 Z M 33.085938 214.859375 " clip-rule="nonzero"/></clipPath><clipPath id="588c41b76b"><path d="M 128.414062 119.535156 L 32.957031 214.992188 L 101.367188 283.40625 L 196.828125 187.945312 Z M 128.414062 119.535156 " clip-rule="nonzero"/></clipPath><clipPath id="3dd9005f89"><path d="M 85 97 L 219.777344 97 L 219.777344 163.371094 L 85 163.371094 Z M 85 97 " clip-rule="nonzero"/></clipPath><clipPath id="d61a92bcd1"><path d="M 219.777344 114.921875 C 219.777344 88.164062 198.085938 66.472656 171.328125 66.472656 L 133.414062 66.472656 C 106.65625 66.472656 84.964844 88.164062 84.964844 114.921875 C 84.964844 141.679688 106.65625 163.371094 133.414062 163.371094 L 171.328125 163.371094 C 198.085938 163.371094 219.777344 141.679688 219.777344 114.921875 Z M 219.777344 114.921875 " clip-rule="nonzero"/></clipPath></defs><g fill="#bb44f0" fill-opacity="1"><g transform="translate(221.292346, 176.042491)"><g><path d="M 23.75 -10.03125 L 33.984375 -54.328125 L 47.15625 -54.328125 L 31.46875 0 L 15.5625 0 L -0.046875 -54.328125 L 13.59375 -54.328125 Z M 23.75 -10.03125 "/></g></g></g><g fill="#bb44f0" fill-opacity="1"><g transform="translate(268.324343, 176.042491)"><g><path d="M 23.515625 -43 C 27.796875 -43 31.4375 -42.082031 34.4375 -40.25 C 37.445312 -38.425781 39.75 -35.859375 41.34375 -32.546875 C 42.9375 -29.242188 43.734375 -25.375 43.734375 -20.9375 C 43.734375 -16.3125 42.929688 -12.332031 41.328125 -9 C 39.722656 -5.664062 37.414062 -3.109375 34.40625 -1.328125 C 31.40625 0.441406 27.773438 1.328125 23.515625 1.328125 C 19.285156 1.328125 15.660156 0.453125 12.640625 -1.296875 C 9.617188 -3.046875 7.304688 -5.578125 5.703125 -8.890625 C 4.097656 -12.210938 3.296875 -16.203125 3.296875 -20.859375 C 3.296875 -25.265625 4.097656 -29.128906 5.703125 -32.453125 C 7.304688 -35.773438 9.617188 -38.363281 12.640625 -40.21875 C 15.660156 -42.070312 19.285156 -43 23.515625 -43 Z M 23.515625 -33.859375 C 20.984375 -33.859375 19.109375 -32.816406 17.890625 -30.734375 C 16.671875 -28.660156 16.0625 -25.367188 16.0625 -20.859375 C 16.0625 -16.253906 16.671875 -12.921875 17.890625 -10.859375 C 19.109375 -8.796875 20.984375 -7.765625 23.515625 -7.765625 C 26.046875 -7.765625 27.921875 -8.796875 29.140625 -10.859375 C 30.359375 -12.921875 30.96875 -16.28125 30.96875 -20.9375 C 30.96875 -25.425781 30.359375 -28.703125 29.140625 -30.765625 C 27.921875 -32.828125 26.046875 -33.859375 23.515625 -33.859375 Z M 23.515625 -33.859375 "/></g></g></g><g fill="#bb44f0" fill-opacity="1"><g transform="translate(315.35634, 176.042491)"><g><path d="M 5.875 0 L 5.875 -8.3125 L 11.359375 -8.3125 L 11.359375 -33.390625 L 5.875 -33.390625 L 5.875 -41.625 L 20.8125 -41.625 L 23.09375 -32.25 C 24.570312 -35.832031 26.46875 -38.5 28.78125 -40.25 C 31.09375 -42 33.925781 -42.875 37.28125 -42.875 C 38.6875 -42.875 39.9375 -42.765625 41.03125 -42.546875 C 42.132812 -42.328125 43.171875 -42.019531 44.140625 -41.625 L 40.375 -31.390625 C 39.613281 -31.597656 38.851562 -31.753906 38.09375 -31.859375 C 37.34375 -31.960938 36.507812 -32.015625 35.59375 -32.015625 C 32.875 -32.015625 30.488281 -30.90625 28.4375 -28.6875 C 26.382812 -26.46875 24.820312 -23.644531 23.75 -20.21875 L 23.75 -8.3125 L 31.984375 -8.3125 L 31.984375 0 Z M 34.0625 -24.21875 L 34.0625 -36.375 L 35.90625 -41.625 L 44.140625 -41.625 L 41.828125 -24.21875 Z M 34.0625 -24.21875 "/></g></g></g><g fill="#bb44f0" fill-opacity="1"><g transform="translate(362.388338, 176.042491)"><g><path d="M 42.953125 -2.4375 C 41.335938 -1.382812 39.378906 -0.492188 37.078125 0.234375 C 34.773438 0.960938 32.1875 1.328125 29.3125 1.328125 C 23.882812 1.328125 19.847656 -0.0625 17.203125 -2.84375 C 14.566406 -5.625 13.25 -9.40625 13.25 -14.1875 L 13.25 -33.078125 L 4.5 -33.078125 L 4.5 -41.625 L 13.25 -41.625 L 13.25 -50.640625 L 25.640625 -52.125 L 25.640625 -41.625 L 39.03125 -41.625 L 37.828125 -33.078125 L 25.640625 -33.078125 L 25.640625 -14.1875 C 25.640625 -12.125 26.109375 -10.644531 27.046875 -9.75 C 27.984375 -8.863281 29.484375 -8.421875 31.546875 -8.421875 C 33.015625 -8.421875 34.351562 -8.597656 35.5625 -8.953125 C 36.78125 -9.304688 37.875 -9.757812 38.84375 -10.3125 Z M 42.953125 -2.4375 "/></g></g></g><g fill="#bb44f0" fill-opacity="1"><g transform="translate(409.420335, 176.042491)"><g><path d="M 16.234375 -17.203125 C 16.515625 -14.929688 17.101562 -13.097656 18 -11.703125 C 18.90625 -10.304688 20.0625 -9.285156 21.46875 -8.640625 C 22.882812 -8.003906 24.46875 -7.6875 26.21875 -7.6875 C 28.125 -7.6875 29.960938 -8 31.734375 -8.625 C 33.515625 -9.25 35.226562 -10.082031 36.875 -11.125 L 41.859375 -4.390625 C 39.898438 -2.710938 37.53125 -1.335938 34.75 -0.265625 C 31.96875 0.796875 28.796875 1.328125 25.234375 1.328125 C 20.484375 1.328125 16.5 0.382812 13.28125 -1.5 C 10.070312 -3.394531 7.65625 -6.003906 6.03125 -9.328125 C 4.414062 -12.648438 3.609375 -16.46875 3.609375 -20.78125 C 3.609375 -24.875 4.390625 -28.597656 5.953125 -31.953125 C 7.523438 -35.316406 9.816406 -38 12.828125 -40 C 15.847656 -42 19.539062 -43 23.90625 -43 C 27.875 -43 31.316406 -42.148438 34.234375 -40.453125 C 37.148438 -38.753906 39.410156 -36.3125 41.015625 -33.125 C 42.617188 -29.9375 43.421875 -26.109375 43.421875 -21.640625 C 43.421875 -20.929688 43.398438 -20.171875 43.359375 -19.359375 C 43.328125 -18.546875 43.269531 -17.828125 43.1875 -17.203125 Z M 23.90625 -34.6875 C 21.6875 -34.6875 19.894531 -33.890625 18.53125 -32.296875 C 17.175781 -30.703125 16.351562 -28.15625 16.0625 -24.65625 L 31.359375 -24.65625 C 31.328125 -27.6875 30.738281 -30.113281 29.59375 -31.9375 C 28.445312 -33.769531 26.550781 -34.6875 23.90625 -34.6875 Z M 23.90625 -34.6875 "/></g></g></g><g fill="#bb44f0" fill-opacity="1"><g transform="translate(456.452345, 176.042491)"><g><path d="M 15.125 0 L 1.71875 0 L 15.984375 -21.875 L 3.0625 -41.625 L 16.9375 -41.625 L 23.59375 -28.296875 L 30.03125 -41.625 L 43.1875 -41.625 L 30.96875 -22.34375 L 45.3125 0 L 31.28125 0 L 23.046875 -15.5625 Z M 15.125 0 "/></g></g></g><g fill="#bb44f0" fill-opacity="1"><g transform="translate(503.484354, 176.042491)"><g><path d="M 17.875 -41.625 L 17.875 -13.125 C 17.875 -11.113281 18.242188 -9.726562 18.984375 -8.96875 C 19.734375 -8.21875 20.773438 -7.84375 22.109375 -7.84375 C 23.390625 -7.84375 24.671875 -8.242188 25.953125 -9.046875 C 27.234375 -9.859375 28.300781 -10.957031 29.15625 -12.34375 L 29.15625 -41.625 L 41.546875 -41.625 L 41.546875 0 L 30.734375 0 L 30.1875 -4.859375 C 28.769531 -2.816406 26.910156 -1.273438 24.609375 -0.234375 C 22.316406 0.804688 19.914062 1.328125 17.40625 1.328125 C 13.375 1.328125 10.378906 0.160156 8.421875 -2.171875 C 6.460938 -4.515625 5.484375 -7.660156 5.484375 -11.609375 L 5.484375 -41.625 Z M 17.875 -41.625 "/></g></g></g><g fill="#bb44f0" fill-opacity="1"><g transform="translate(550.516363, 176.042491)"><g><path d="M 22.1875 -7.53125 C 24.25 -7.53125 25.910156 -7.851562 27.171875 -8.5 C 28.441406 -9.15625 29.078125 -10.132812 29.078125 -11.4375 C 29.078125 -12.332031 28.828125 -13.078125 28.328125 -13.671875 C 27.835938 -14.273438 26.882812 -14.851562 25.46875 -15.40625 C 24.0625 -15.957031 21.972656 -16.609375 19.203125 -17.359375 C 16.671875 -18.035156 14.429688 -18.894531 12.484375 -19.9375 C 10.535156 -20.988281 9.019531 -22.335938 7.9375 -23.984375 C 6.851562 -25.628906 6.3125 -27.679688 6.3125 -30.140625 C 6.3125 -32.617188 7.003906 -34.828125 8.390625 -36.765625 C 9.773438 -38.703125 11.8125 -40.222656 14.5 -41.328125 C 17.195312 -42.441406 20.488281 -43 24.375 -43 C 28.082031 -43 31.316406 -42.519531 34.078125 -41.5625 C 36.835938 -40.613281 39.222656 -39.40625 41.234375 -37.9375 L 36.296875 -30.65625 C 34.566406 -31.71875 32.707031 -32.566406 30.71875 -33.203125 C 28.738281 -33.847656 26.742188 -34.171875 24.734375 -34.171875 C 22.722656 -34.171875 21.226562 -33.90625 20.25 -33.375 C 19.269531 -32.84375 18.78125 -32.039062 18.78125 -30.96875 C 18.78125 -30.257812 19.03125 -29.648438 19.53125 -29.140625 C 20.039062 -28.628906 21 -28.101562 22.40625 -27.5625 C 23.820312 -27.03125 25.890625 -26.375 28.609375 -25.59375 C 31.304688 -24.832031 33.648438 -23.957031 35.640625 -22.96875 C 37.640625 -21.976562 39.1875 -20.648438 40.28125 -18.984375 C 41.382812 -17.328125 41.9375 -15.140625 41.9375 -12.421875 C 41.9375 -9.390625 41.035156 -6.847656 39.234375 -4.796875 C 37.429688 -2.742188 35.039062 -1.207031 32.0625 -0.1875 C 29.082031 0.820312 25.816406 1.328125 22.265625 1.328125 C 18.242188 1.328125 14.691406 0.753906 11.609375 -0.390625 C 8.523438 -1.535156 5.894531 -3.050781 3.71875 -4.9375 L 9.953125 -11.921875 C 11.578125 -10.660156 13.414062 -9.613281 15.46875 -8.78125 C 17.519531 -7.945312 19.757812 -7.53125 22.1875 -7.53125 Z M 22.1875 -7.53125 "/></g></g></g><g fill="#8e00cd" fill-opacity="1"><g transform="translate(597.55794, 176.042491)"><g><path d="M 14.78125 -7.40625 C 14.78125 -9 15.171875 -10.453125 15.953125 -11.765625 C 16.734375 -13.085938 17.789062 -14.148438 19.125 -14.953125 C 20.457031 -15.753906 21.921875 -16.15625 23.515625 -16.15625 C 25.140625 -16.15625 26.609375 -15.753906 27.921875 -14.953125 C 29.242188 -14.148438 30.296875 -13.085938 31.078125 -11.765625 C 31.859375 -10.453125 32.25 -9 32.25 -7.40625 C 32.25 -5.84375 31.859375 -4.394531 31.078125 -3.0625 C 30.296875 -1.726562 29.242188 -0.664062 27.921875 0.125 C 26.609375 0.925781 25.140625 1.328125 23.515625 1.328125 C 21.921875 1.328125 20.457031 0.925781 19.125 0.125 C 17.789062 -0.664062 16.734375 -1.726562 15.953125 -3.0625 C 15.171875 -4.394531 14.78125 -5.84375 14.78125 -7.40625 Z M 14.78125 -7.40625 "/></g></g></g><g fill="#8e00cd" fill-opacity="1"><g transform="translate(644.589937, 176.042491)"><g><path d="M 37.046875 -41.625 L 37.046875 -12.078125 C 37.046875 -6.066406 35.925781 -1.125 33.6875 2.75 C 31.457031 6.632812 28.140625 9.71875 23.734375 12 C 19.328125 14.289062 13.882812 16.078125 7.40625 17.359375 L 5.453125 7.921875 C 9.660156 6.953125 13.1875 5.75 16.03125 4.3125 C 18.875 2.875 21.019531 0.921875 22.46875 -1.546875 C 23.925781 -4.015625 24.65625 -7.257812 24.65625 -11.28125 L 24.65625 -33.15625 L 9.6875 -33.15625 L 9.6875 -41.625 Z M 29 -63.421875 C 31.144531 -63.421875 32.894531 -62.753906 34.25 -61.421875 C 35.613281 -60.085938 36.296875 -58.425781 36.296875 -56.4375 C 36.296875 -54.457031 35.613281 -52.789062 34.25 -51.4375 C 32.894531 -50.09375 31.144531 -49.421875 29 -49.421875 C 26.832031 -49.421875 25.0625 -50.09375 23.6875 -51.4375 C 22.320312 -52.789062 21.640625 -54.457031 21.640625 -56.4375 C 21.640625 -58.425781 22.320312 -60.085938 23.6875 -61.421875 C 25.0625 -62.753906 26.832031 -63.421875 29 -63.421875 Z M 29 -63.421875 "/></g></g></g><g fill="#8e00cd" fill-opacity="1"><g transform="translate(691.621935, 176.042491)"><g><path d="M 22.1875 -7.53125 C 24.25 -7.53125 25.910156 -7.851562 27.171875 -8.5 C 28.441406 -9.15625 29.078125 -10.132812 29.078125 -11.4375 C 29.078125 -12.332031 28.828125 -13.078125 28.328125 -13.671875 C 27.835938 -14.273438 26.882812 -14.851562 25.46875 -15.40625 C 24.0625 -15.957031 21.972656 -16.609375 19.203125 -17.359375 C 16.671875 -18.035156 14.429688 -18.894531 12.484375 -19.9375 C 10.535156 -20.988281 9.019531 -22.335938 7.9375 -23.984375 C 6.851562 -25.628906 6.3125 -27.679688 6.3125 -30.140625 C 6.3125 -32.617188 7.003906 -34.828125 8.390625 -36.765625 C 9.773438 -38.703125 11.8125 -40.222656 14.5 -41.328125 C 17.195312 -42.441406 20.488281 -43 24.375 -43 C 28.082031 -43 31.316406 -42.519531 34.078125 -41.5625 C 36.835938 -40.613281 39.222656 -39.40625 41.234375 -37.9375 L 36.296875 -30.65625 C 34.566406 -31.71875 32.707031 -32.566406 30.71875 -33.203125 C 28.738281 -33.847656 26.742188 -34.171875 24.734375 -34.171875 C 22.722656 -34.171875 21.226562 -33.90625 20.25 -33.375 C 19.269531 -32.84375 18.78125 -32.039062 18.78125 -30.96875 C 18.78125 -30.257812 19.03125 -29.648438 19.53125 -29.140625 C 20.039062 -28.628906 21 -28.101562 22.40625 -27.5625 C 23.820312 -27.03125 25.890625 -26.375 28.609375 -25.59375 C 31.304688 -24.832031 33.648438 -23.957031 35.640625 -22.96875 C 37.640625 -21.976562 39.1875 -20.648438 40.28125 -18.984375 C 41.382812 -17.328125 41.9375 -15.140625 41.9375 -12.421875 C 41.9375 -9.390625 41.035156 -6.847656 39.234375 -4.796875 C 37.429688 -2.742188 35.039062 -1.207031 32.0625 -0.1875 C 29.082031 0.820312 25.816406 1.328125 22.265625 1.328125 C 18.242188 1.328125 14.691406 0.753906 11.609375 -0.390625 C 8.523438 -1.535156 5.894531 -3.050781 3.71875 -4.9375 L 9.953125 -11.921875 C 11.578125 -10.660156 13.414062 -9.613281 15.46875 -8.78125 C 17.519531 -7.945312 19.757812 -7.53125 22.1875 -7.53125 Z M 22.1875 -7.53125 "/></g></g></g><g clip-path="url(#adb8719aa7)"><g clip-path="url(#221e4f7eec)"><path fill="#00a170" d="M 71.253906 177.675781 C 71.253906 177.675781 33.089844 104.15625 129.980469 42.96875 C 129.980469 42.96875 59.433594 90.574219 94.289062 177.675781 Z M 71.253906 177.675781 " fill-opacity="1" fill-rule="nonzero"/></g></g><g clip-path="url(#529521e198)"><g clip-path="url(#35ca9809c5)"><g clip-path="url(#393a3d62ee)"><g clip-path="url(#52d57d8871)"><g clip-path="url(#087da0c2cb)"><path fill="#00a170" d="M 106.25 203.292969 C 106.25 203.292969 27.277344 178.292969 52.523438 66.519531 C 52.523438 66.519531 36.304688 150.0625 122.535156 187.007812 Z M 106.25 203.292969 " fill-opacity="1" fill-rule="nonzero"/></g></g></g></g></g><g clip-path="url(#7acbe27222)"><g clip-path="url(#d99ca65111)"><g clip-path="url(#fddbd7fc25)"><g clip-path="url(#dc86a8b6c8)"><g clip-path="url(#85873b9755)"><path fill="#00a170" d="M 64.003906 138.898438 C 64.003906 138.898438 89.003906 59.921875 200.777344 85.171875 C 200.777344 85.171875 117.234375 68.953125 80.289062 155.183594 Z M 64.003906 138.898438 " fill-opacity="1" fill-rule="nonzero"/></g></g></g></g></g><g clip-path="url(#a6202ac144)"><g clip-path="url(#e34843098f)"><path fill="#00a170" d="M 148.886719 195.347656 C 148.886719 195.347656 75.367188 233.511719 14.179688 136.621094 C 14.179688 136.621094 61.789062 207.167969 148.886719 172.3125 Z M 148.886719 195.347656 " fill-opacity="1" fill-rule="nonzero"/></g></g><g clip-path="url(#397dc66a17)"><g clip-path="url(#4c79cd243f)"><path fill="#00a170" d="M 162.648438 122.320312 C 162.648438 122.320312 200.816406 195.839844 103.925781 257.023438 C 103.925781 257.023438 174.46875 209.417969 139.617188 122.320312 Z M 162.648438 122.320312 " fill-opacity="1" fill-rule="nonzero"/></g></g><g clip-path="url(#80b9a5d7ec)"><g clip-path="url(#5109fd2c70)"><g clip-path="url(#138c6c359c)"><g clip-path="url(#52f7a6e7b5)"><g clip-path="url(#03b4796216)"><path fill="#00a170" d="M 127.65625 96.699219 C 127.65625 96.699219 206.628906 121.699219 181.382812 233.476562 C 181.382812 233.476562 197.601562 149.929688 111.367188 112.984375 Z M 127.65625 96.699219 " fill-opacity="1" fill-rule="nonzero"/></g></g></g></g></g><g clip-path="url(#c78f9e3306)"><g clip-path="url(#b780105ebf)"><g clip-path="url(#2ea04084dc)"><g clip-path="url(#dc93c4d010)"><g clip-path="url(#588c41b76b)"><path fill="#00a170" d="M 169.902344 161.09375 C 169.902344 161.09375 144.902344 240.070312 33.125 214.820312 C 33.125 214.820312 116.671875 231.042969 153.613281 144.808594 Z M 169.902344 161.09375 " fill-opacity="1" fill-rule="nonzero"/></g></g></g></g></g><g clip-path="url(#3dd9005f89)"><g clip-path="url(#d61a92bcd1)"><path fill="#00a170" d="M 85.019531 104.648438 C 85.019531 104.648438 158.539062 66.480469 219.722656 163.371094 C 219.722656 163.371094 172.117188 92.828125 85.019531 127.679688 Z M 85.019531 104.648438 " fill-opacity="1" fill-rule="nonzero"/></g></g></svg>