<svg xmlns="http://www.w3.org/2000/svg" xmlns:xlink="http://www.w3.org/1999/xlink" width="500" zoomAndPan="magnify" viewBox="0 0 375 374.999991" height="500" preserveAspectRatio="xMidYMid meet" version="1.0"><defs><clipPath id="4a42981497"><path d="M 112 37 L 205.253906 37 L 205.253906 226.480469 L 112 226.480469 Z M 112 37 " clip-rule="nonzero"/></clipPath><clipPath id="c239cf5ace"><path d="M 137.148438 36.964844 C 119.082031 36.964844 101.761719 44.140625 88.988281 56.914062 C 76.214844 69.683594 69.039062 87.007812 69.039062 105.070312 L 69.039062 158.375 C 69.039062 176.4375 76.214844 193.761719 88.988281 206.535156 C 101.761719 219.304688 119.082031 226.480469 137.148438 226.480469 C 155.210938 226.480469 172.535156 219.304688 185.304688 206.535156 C 198.078125 193.761719 205.253906 176.4375 205.253906 158.375 L 205.253906 105.070312 C 205.253906 87.007812 198.078125 69.683594 185.304688 56.914062 C 172.535156 44.140625 155.210938 36.964844 137.148438 36.964844 Z M 137.148438 36.964844 " clip-rule="nonzero"/></clipPath><clipPath id="153e3a4bbb"><path d="M 89 98 L 195 98 L 195 263 L 89 263 Z M 89 98 " clip-rule="nonzero"/></clipPath><clipPath id="616d632c06"><path d="M 96.316406 70.089844 L 230.488281 204.265625 L 133.96875 300.785156 L -0.203125 166.609375 Z M 96.316406 70.089844 " clip-rule="nonzero"/></clipPath><clipPath id="874fcabc68"><path d="M 48.15625 118.25 C 35.382812 131.023438 28.207031 148.347656 28.207031 166.410156 C 28.207031 184.472656 35.382812 201.796875 48.15625 214.570312 L 85.847656 252.257812 C 98.617188 265.03125 115.941406 272.207031 134.007812 272.207031 C 152.070312 272.207031 169.394531 265.03125 182.164062 252.257812 C 194.9375 239.488281 202.113281 222.164062 202.113281 204.101562 C 202.113281 186.035156 194.9375 168.710938 182.164062 155.941406 L 144.476562 118.25 C 131.703125 105.476562 114.378906 98.300781 96.316406 98.300781 C 78.253906 98.300781 60.929688 105.476562 48.15625 118.25 Z M 48.15625 118.25 " clip-rule="nonzero"/></clipPath><clipPath id="31671fc510"><path d="M 96.316406 70.089844 L 230.488281 204.265625 L 133.96875 300.785156 L -0.203125 166.609375 Z M 96.316406 70.089844 " clip-rule="nonzero"/></clipPath><clipPath id="4a90df3a81"><path d="M 230.324219 204.097656 L 96.148438 69.925781 L -0.371094 166.445312 L 133.804688 300.617188 Z M 230.324219 204.097656 " clip-rule="nonzero"/></clipPath><clipPath id="3d46a8958c"><path d="M 112 89 L 277 89 L 277 195 L 112 195 Z M 112 89 " clip-rule="nonzero"/></clipPath><clipPath id="a894f2453b"><path d="M 304.835938 96.3125 L 170.664062 230.484375 L 74.144531 133.964844 L 208.316406 -0.207031 Z M 304.835938 96.3125 " clip-rule="nonzero"/></clipPath><clipPath id="3e41570f34"><path d="M 256.675781 48.152344 C 243.90625 35.378906 226.582031 28.203125 208.519531 28.203125 C 190.453125 28.203125 173.132812 35.378906 160.359375 48.152344 L 122.667969 85.84375 C 109.894531 98.617188 102.71875 115.9375 102.71875 134.003906 C 102.71875 152.066406 109.894531 169.390625 122.667969 182.164062 C 135.441406 194.933594 152.765625 202.109375 170.828125 202.109375 C 188.890625 202.109375 206.214844 194.933594 218.988281 182.164062 L 256.675781 144.472656 C 269.449219 131.699219 276.625 114.375 276.625 96.3125 C 276.625 78.25 269.449219 60.925781 256.675781 48.152344 Z M 256.675781 48.152344 " clip-rule="nonzero"/></clipPath><clipPath id="44c4bb95ff"><path d="M 304.835938 96.3125 L 170.664062 230.484375 L 74.144531 133.964844 L 208.316406 -0.207031 Z M 304.835938 96.3125 " clip-rule="nonzero"/></clipPath><clipPath id="9613bff2b5"><path d="M 170.828125 230.320312 L 305.003906 96.148438 L 208.484375 -0.375 L 74.308594 133.800781 Z M 170.828125 230.320312 " clip-rule="nonzero"/></clipPath><clipPath id="ff53e21361"><path d="M 42.394531 168.691406 L 231.910156 168.691406 L 231.910156 262 L 42.394531 262 Z M 42.394531 168.691406 " clip-rule="nonzero"/></clipPath><clipPath id="b8fd66fae2"><path d="M 42.394531 236.800781 C 42.394531 254.863281 49.570312 272.1875 62.34375 284.960938 C 75.113281 297.734375 92.4375 304.910156 110.5 304.910156 L 163.804688 304.910156 C 181.867188 304.910156 199.191406 297.734375 211.964844 284.960938 C 224.734375 272.1875 231.910156 254.863281 231.910156 236.800781 C 231.910156 218.738281 224.734375 201.414062 211.964844 188.640625 C 199.191406 175.867188 181.867188 168.691406 163.804688 168.691406 L 110.5 168.691406 C 92.4375 168.691406 75.113281 175.867188 62.34375 188.640625 C 49.570312 201.414062 42.394531 218.738281 42.394531 236.800781 Z M 42.394531 236.800781 " clip-rule="nonzero"/></clipPath><clipPath id="af39eee18b"><path d="M 168.628906 148.511719 L 262 148.511719 L 262 338 L 168.628906 338 Z M 168.628906 148.511719 " clip-rule="nonzero"/></clipPath><clipPath id="7e5454b5d7"><path d="M 236.738281 338.027344 C 254.800781 338.027344 272.125 330.851562 284.898438 318.078125 C 297.667969 305.304688 304.84375 287.984375 304.84375 269.917969 L 304.84375 216.617188 C 304.84375 198.554688 297.667969 181.230469 284.898438 168.457031 C 272.125 155.683594 254.800781 148.507812 236.738281 148.507812 C 218.675781 148.507812 201.351562 155.683594 188.578125 168.457031 C 175.804688 181.230469 168.628906 198.554688 168.628906 216.617188 L 168.628906 269.917969 C 168.628906 287.984375 175.804688 305.304688 188.578125 318.078125 C 201.351562 330.851562 218.675781 338.027344 236.738281 338.027344 Z M 236.738281 338.027344 " clip-rule="nonzero"/></clipPath><clipPath id="beb3257877"><path d="M 179 112 L 285 112 L 285 277 L 179 277 Z M 179 112 " clip-rule="nonzero"/></clipPath><clipPath id="0a4b4c6675"><path d="M 277.570312 304.902344 L 143.394531 170.726562 L 239.914062 74.207031 L 374.089844 208.378906 Z M 277.570312 304.902344 " clip-rule="nonzero"/></clipPath><clipPath id="7fa9a40292"><path d="M 325.726562 256.742188 C 338.5 243.96875 345.675781 226.644531 345.675781 208.582031 C 345.675781 190.519531 338.5 173.195312 325.726562 160.421875 L 288.039062 122.730469 C 275.265625 109.960938 257.941406 102.785156 239.878906 102.785156 C 221.816406 102.785156 204.492188 109.960938 191.71875 122.730469 C 178.945312 135.503906 171.769531 152.828125 171.769531 170.890625 C 171.769531 188.953125 178.945312 206.277344 191.71875 219.050781 L 229.410156 256.742188 C 242.183594 269.515625 259.503906 276.691406 277.570312 276.691406 C 295.632812 276.691406 312.957031 269.515625 325.726562 256.742188 Z M 325.726562 256.742188 " clip-rule="nonzero"/></clipPath><clipPath id="c06eb61c77"><path d="M 277.570312 304.902344 L 143.394531 170.726562 L 239.914062 74.207031 L 374.089844 208.378906 Z M 277.570312 304.902344 " clip-rule="nonzero"/></clipPath><clipPath id="5f83f5f927"><path d="M 143.5625 170.894531 L 277.734375 305.066406 L 374.253906 208.546875 L 240.082031 74.371094 Z M 143.5625 170.894531 " clip-rule="nonzero"/></clipPath><clipPath id="23c950f0db"><path d="M 97 180 L 262 180 L 262 286 L 97 286 Z M 97 180 " clip-rule="nonzero"/></clipPath><clipPath id="41457e097f"><path d="M 69.046875 278.679688 L 203.222656 144.503906 L 299.742188 241.023438 L 165.566406 375.199219 Z M 69.046875 278.679688 " clip-rule="nonzero"/></clipPath><clipPath id="fef10ca1ff"><path d="M 117.207031 326.839844 C 129.980469 339.609375 147.304688 346.785156 165.367188 346.785156 C 183.429688 346.785156 200.753906 339.609375 213.527344 326.839844 L 251.214844 289.148438 C 263.988281 276.375 271.164062 259.050781 271.164062 240.988281 C 271.164062 222.925781 263.988281 205.601562 251.214844 192.828125 C 238.445312 180.054688 221.121094 172.878906 203.058594 172.878906 C 184.992188 172.878906 167.667969 180.054688 154.898438 192.828125 L 117.207031 230.519531 C 104.433594 243.292969 97.257812 260.613281 97.257812 278.679688 C 97.257812 296.742188 104.433594 314.066406 117.207031 326.839844 Z M 117.207031 326.839844 " clip-rule="nonzero"/></clipPath><clipPath id="21d9872c5b"><path d="M 69.046875 278.679688 L 203.222656 144.503906 L 299.742188 241.023438 L 165.566406 375.199219 Z M 69.046875 278.679688 " clip-rule="nonzero"/></clipPath><clipPath id="d07bd8f376"><path d="M 203.054688 144.671875 L 68.882812 278.84375 L 165.402344 375.363281 L 299.574219 241.191406 Z M 203.054688 144.671875 " clip-rule="nonzero"/></clipPath><clipPath id="a9d2688a8a"><path d="M 142 113 L 331.492188 113 L 331.492188 206.296875 L 142 206.296875 Z M 142 113 " clip-rule="nonzero"/></clipPath><clipPath id="80164df7a9"><path d="M 331.492188 138.191406 C 331.492188 120.125 324.316406 102.804688 311.542969 90.03125 C 298.769531 77.257812 281.445312 70.082031 263.382812 70.082031 L 210.082031 70.082031 C 192.019531 70.082031 174.695312 77.257812 161.921875 90.03125 C 149.148438 102.804688 141.972656 120.125 141.972656 138.191406 C 141.972656 156.253906 149.148438 173.578125 161.921875 186.347656 C 174.695312 199.121094 192.019531 206.296875 210.082031 206.296875 L 263.382812 206.296875 C 281.445312 206.296875 298.769531 199.121094 311.542969 186.347656 C 324.316406 173.578125 331.492188 156.253906 331.492188 138.191406 Z M 331.492188 138.191406 " clip-rule="nonzero"/></clipPath></defs><g clip-path="url(#4a42981497)"><g clip-path="url(#c239cf5ace)"><path fill="#00a170" d="M 122.703125 226.40625 C 122.703125 226.40625 69.046875 123.050781 205.253906 37.039062 C 205.253906 37.039062 106.085938 103.964844 155.082031 226.40625 Z M 122.703125 226.40625 " fill-opacity="1" fill-rule="nonzero"/></g></g><g clip-path="url(#153e3a4bbb)"><g clip-path="url(#616d632c06)"><g clip-path="url(#874fcabc68)"><g clip-path="url(#31671fc510)"><g clip-path="url(#4a90df3a81)"><path fill="#00a170" d="M 171.898438 262.417969 C 171.898438 262.417969 60.875 227.277344 96.367188 70.144531 C 96.367188 70.144531 73.566406 187.589844 194.792969 239.523438 Z M 171.898438 262.417969 " fill-opacity="1" fill-rule="nonzero"/></g></g></g></g></g><g clip-path="url(#3d46a8958c)"><g clip-path="url(#a894f2453b)"><g clip-path="url(#3e41570f34)"><g clip-path="url(#44c4bb95ff)"><g clip-path="url(#9613bff2b5)"><path fill="#00a170" d="M 112.507812 171.894531 C 112.507812 171.894531 147.652344 60.871094 304.785156 96.363281 C 304.785156 96.363281 187.335938 73.5625 135.402344 194.789062 Z M 112.507812 171.894531 " fill-opacity="1" fill-rule="nonzero"/></g></g></g></g></g><g clip-path="url(#ff53e21361)"><g clip-path="url(#b8fd66fae2)"><path fill="#00a170" d="M 231.835938 251.246094 C 231.835938 251.246094 128.480469 304.898438 42.46875 168.691406 C 42.46875 168.691406 109.394531 267.863281 231.835938 218.867188 Z M 231.835938 251.246094 " fill-opacity="1" fill-rule="nonzero"/></g></g><g clip-path="url(#af39eee18b)"><g clip-path="url(#7e5454b5d7)"><path fill="#00a170" d="M 251.183594 148.585938 C 251.183594 148.585938 304.835938 251.9375 168.628906 337.953125 C 168.628906 337.953125 267.800781 271.027344 218.804688 148.585938 Z M 251.183594 148.585938 " fill-opacity="1" fill-rule="nonzero"/></g></g><g clip-path="url(#beb3257877)"><g clip-path="url(#0a4b4c6675)"><g clip-path="url(#7fa9a40292)"><g clip-path="url(#c06eb61c77)"><g clip-path="url(#5f83f5f927)"><path fill="#00a170" d="M 201.988281 112.570312 C 201.988281 112.570312 313.007812 147.714844 277.515625 304.847656 C 277.515625 304.847656 300.316406 187.402344 179.09375 135.46875 Z M 201.988281 112.570312 " fill-opacity="1" fill-rule="nonzero"/></g></g></g></g></g><g clip-path="url(#23c950f0db)"><g clip-path="url(#41457e097f)"><g clip-path="url(#fef10ca1ff)"><g clip-path="url(#21d9872c5b)"><g clip-path="url(#d07bd8f376)"><path fill="#00a170" d="M 261.375 203.097656 C 261.375 203.097656 226.234375 314.117188 69.101562 278.625 C 69.101562 278.625 186.546875 301.425781 238.480469 180.203125 Z M 261.375 203.097656 " fill-opacity="1" fill-rule="nonzero"/></g></g></g></g></g><g clip-path="url(#a9d2688a8a)"><g clip-path="url(#80164df7a9)"><path fill="#00a170" d="M 142.050781 123.746094 C 142.050781 123.746094 245.402344 70.089844 331.417969 206.296875 C 331.417969 206.296875 264.492188 107.128906 142.050781 156.125 Z M 142.050781 123.746094 " fill-opacity="1" fill-rule="nonzero"/></g></g></svg>